<?xml version="1.0" encoding="UTF-8" standalone="no"?>
<!DOCTYPE svg PUBLIC "-//W3C//DTD SVG 1.1//EN" "http://www.w3.org/Graphics/SVG/1.1/DTD/svg11.dtd">
<svg width="100%" height="100%" viewBox="0 0 2550 3300" version="1.1" xmlns="http://www.w3.org/2000/svg" xmlns:xlink="http://www.w3.org/1999/xlink" xml:space="preserve" xmlns:serif="http://www.serif.com/" style="fill-rule:evenodd;clip-rule:evenodd;stroke-linejoin:round;stroke-miterlimit:2;">
    <rect x="0" y="0" width="2550" height="3300"/>
    <g transform="matrix(1.106469,0,0,1.106469,-185.653364,-1270.399078)">
        <path d="M574.938,1437.238L460.387,1437.238L460.387,1402.082C460.387,1385.676 458.922,1375.227 455.992,1370.734C453.062,1366.242 448.18,1363.996 441.344,1363.996C433.922,1363.996 428.307,1367.023 424.498,1373.078C420.689,1379.133 418.785,1388.312 418.785,1400.617C418.785,1416.438 420.934,1428.352 425.23,1436.359C429.332,1444.367 440.953,1454.035 460.094,1465.363C514.977,1497.98 549.547,1524.738 563.805,1545.637C578.062,1566.535 585.191,1600.227 585.191,1646.711C585.191,1680.5 581.236,1705.402 573.326,1721.418C565.416,1737.434 550.133,1750.861 527.477,1761.701C504.82,1772.541 478.453,1777.961 448.375,1777.961C415.367,1777.961 387.193,1771.711 363.854,1759.211C340.514,1746.711 325.23,1730.793 318.004,1711.457C310.777,1692.121 307.164,1664.68 307.164,1629.133L307.164,1598.078L421.715,1598.078L421.715,1655.793C421.715,1673.566 423.326,1684.992 426.549,1690.07C429.771,1695.148 435.484,1697.688 443.688,1697.688C451.891,1697.688 457.994,1694.465 461.998,1688.02C466.002,1681.574 468.004,1672.004 468.004,1659.309C468.004,1631.379 464.195,1613.117 456.578,1604.523C448.766,1595.93 429.527,1581.574 398.863,1561.457C368.199,1541.145 347.887,1526.398 337.926,1517.219C327.965,1508.039 319.713,1495.344 313.17,1479.133C306.627,1462.922 303.355,1442.219 303.355,1417.023C303.355,1380.695 307.994,1354.133 317.271,1337.336C326.549,1320.539 341.539,1307.404 362.242,1297.932C382.945,1288.459 407.945,1283.723 437.242,1283.723C469.273,1283.723 496.568,1288.898 519.127,1299.25C541.686,1309.602 556.627,1322.639 563.951,1338.361C571.275,1354.084 574.938,1380.793 574.938,1418.488L574.938,1437.238Z" style="fill:white;fill-rule:nonzero;"/>
        <path d="M904.234,1293.684L904.234,1610.676C904.234,1646.613 903.062,1671.857 900.719,1686.408C898.375,1700.959 891.441,1715.9 879.918,1731.232C868.395,1746.564 853.209,1758.186 834.361,1766.096C815.514,1774.006 793.297,1777.961 767.711,1777.961C739.391,1777.961 714.391,1773.273 692.711,1763.898C671.031,1754.523 654.82,1742.316 644.078,1727.277C633.336,1712.238 626.988,1696.369 625.035,1679.67C623.082,1662.971 622.105,1627.863 622.105,1574.348L622.105,1293.684L745.445,1293.684L745.445,1649.348C745.445,1670.051 746.568,1683.283 748.814,1689.045C751.061,1694.807 755.602,1697.688 762.438,1697.688C770.25,1697.688 775.279,1694.514 777.525,1688.166C779.771,1681.818 780.895,1666.828 780.895,1643.195L780.895,1293.684L904.234,1293.684Z" style="fill:white;fill-rule:nonzero;"/>
        <path d="M1332.555,1293.684L1332.555,1768L1224.742,1768L1224.742,1447.785L1181.676,1768L1105.211,1768L1059.801,1455.109L1059.801,1768L951.988,1768L951.988,1293.684L1111.656,1293.684C1116.344,1322.199 1121.324,1355.793 1126.598,1394.465L1143.59,1515.168L1171.715,1293.684L1332.555,1293.684Z" style="fill:white;fill-rule:nonzero;"/>
        <path d="M1762.633,1293.684L1762.633,1691.179L1654.82,1691.179L1654.82,1447.785L1611.754,1768L1535.289,1768L1489.879,1455.109L1489.879,1768L1382.066,1768L1382.066,1293.684L1541.734,1293.684C1546.422,1322.199 1551.402,1355.793 1556.676,1394.465L1573.668,1515.168L1601.793,1293.684L1762.633,1293.684Z" style="fill:white;fill-rule:nonzero;"/>
        <path d="M1812.145,1293.684L2017.809,1293.684L2017.809,1388.605L1935.484,1388.605L1935.484,1446.915L2012.535,1446.915L2012.535,1537.149L1935.484,1537.149L1935.484,1596.257L2026.012,1596.257L2026.012,1691.179L1812.145,1691.179L1812.145,1293.684Z" style="fill:white;fill-rule:nonzero;"/>
        <path d="M2061.461,1293.684L2148.766,1293.684C2206.969,1293.684 2246.373,1295.93 2266.979,1300.422C2287.584,1304.914 2304.381,1316.389 2317.369,1334.846C2330.357,1353.303 2336.852,1382.746 2336.852,1423.176C2336.852,1460.09 2332.262,1484.895 2323.082,1497.59C2313.902,1510.285 2295.836,1517.902 2268.883,1520.441C2293.297,1526.496 2309.703,1534.602 2318.102,1544.758C2326.5,1554.914 2331.725,1564.24 2333.775,1572.736C2335.826,1581.232 2336.852,1604.621 2336.852,1642.902L2336.852,1768L2222.301,1768L2222.301,1610.383C2222.301,1584.992 2220.299,1569.27 2216.295,1563.215C2212.291,1557.16 2201.793,1554.133 2184.801,1554.133L2184.801,1691.179L2061.461,1691.179L2061.461,1293.684ZM2184.801,1374.836L2184.801,1480.305C2198.668,1480.305 2208.385,1478.4 2213.951,1474.592C2219.518,1470.783 2222.301,1458.43 2222.301,1437.531L2222.301,1411.457C2222.301,1396.418 2219.615,1386.555 2214.244,1381.867C2208.873,1377.18 2199.059,1374.836 2184.801,1374.836Z" style="fill:white;fill-rule:nonzero;"/>
    </g>
    <g transform="matrix(0.663575,0,0,0.663575,1384.089056,271.101079)">
        <path d="M654.595,970.876C727.251,963.845 787.407,968.337 835.064,984.353C865.923,994.9 889.361,1008.669 905.376,1025.662C921.392,1042.654 930.767,1060.72 933.501,1079.861C935.845,1099.392 933.111,1117.751 925.298,1134.939C917.486,1152.126 906.743,1164.822 893.071,1173.025C879.4,1180.837 865.044,1183.767 850.005,1181.814C834.966,1179.861 821.978,1175.369 811.04,1168.337C800.884,1161.306 793.364,1153.298 788.482,1144.314C783.599,1135.33 779.4,1126.15 775.884,1116.775C745.025,1117.947 714.068,1120.095 683.013,1123.22C651.958,1126.345 620.611,1132.595 588.97,1141.97C557.329,1152.126 525.298,1165.408 492.876,1181.814C460.454,1198.22 427.837,1215.603 395.025,1233.962C388.775,1245.681 381.646,1256.228 373.638,1265.603C365.63,1274.978 354.79,1280.837 341.118,1283.181C325.884,1285.134 309.575,1282.498 292.193,1275.271C274.81,1268.044 261.821,1256.619 253.228,1240.994C245.025,1225.369 244.732,1206.521 252.349,1184.451C259.966,1162.38 277.837,1138.845 305.962,1113.845L304.204,1097.439C355.376,1054.08 404.302,1010.525 450.982,966.775C497.661,923.025 537.798,878.494 571.392,833.181C603.814,786.306 627.837,742.263 643.462,701.052C659.087,659.841 667.095,628.689 667.486,607.595C667.095,588.455 661.529,579.763 650.786,581.521C640.044,583.279 627.837,588.65 614.165,597.634C587.993,614.041 562.407,631.033 537.407,648.611C540.532,671.658 538.189,693.337 530.376,713.65C520.22,735.525 500.884,748.416 472.368,752.322C457.525,753.494 442.486,750.759 427.251,744.119C412.017,737.478 399.321,725.955 389.165,709.548C378.618,693.142 374.517,672.244 376.861,646.853C379.204,621.462 391.9,593.728 414.946,563.65C440.337,532.4 474.029,503.396 516.021,476.638C558.013,449.88 599.907,433.572 641.704,427.712C682.72,423.416 717.779,431.423 746.88,451.736C775.982,472.048 795.611,500.564 805.767,537.283C814.751,573.611 814.263,614.334 804.302,659.451C794.341,704.568 778.618,750.173 757.134,796.267C727.837,856.033 693.657,914.236 654.595,970.876Z" style="fill:rgb(0,255,255);fill-rule:nonzero;"/>
        <path d="M984.478,521.462C961.821,492.947 960.064,467.556 979.204,445.291C988.189,433.962 1000.493,425.564 1016.118,420.095C1031.743,414.626 1049.517,415.603 1069.439,423.025C1079.595,427.712 1089.946,434.158 1100.493,442.361C1114.556,439.236 1126.861,440.603 1137.407,446.462C1146.001,449.587 1152.544,455.349 1157.036,463.748C1161.529,472.146 1163.189,486.111 1162.017,505.642C1171.392,517.361 1180.571,529.275 1189.556,541.384C1230.181,596.072 1256.157,643.923 1267.486,684.939C1271.001,704.08 1269.829,719.509 1263.97,731.228C1258.111,742.947 1249.126,751.541 1237.017,757.009C1224.517,762.478 1211.236,764.138 1197.173,761.99C1183.111,759.841 1170.22,752.126 1158.501,738.845C1147.954,725.173 1138.189,707.986 1129.204,687.283C1127.642,683.376 1125.884,679.47 1123.931,675.564C1111.821,718.533 1099.321,762.087 1086.431,806.228C1078.75,832.153 1071.462,856.897 1064.567,880.462C1063.047,885.657 1061.546,890.796 1060.064,895.876C1032.329,995.876 1012.407,1074.783 1000.298,1132.595C1030.376,1111.111 1060.454,1089.431 1090.532,1067.556C1129.986,1039.431 1169.439,1011.111 1208.892,982.595C1176.47,992.361 1144.048,1001.931 1111.626,1011.306C1081.939,1019.9 1052.056,1028.841 1022.368,1037.826C1027.009,1012.826 1019.906,963.849 1026.547,938.849C1033.969,911.114 1057.536,907.805 1064.567,880.462C1122.77,862.883 1177.642,846.755 1229.986,832.888C1282.329,819.021 1325.689,809.939 1360.064,805.642C1392.486,802.517 1415.435,804.861 1428.911,812.673C1442.388,820.486 1451.079,831.619 1454.986,846.072C1461.236,860.134 1461.138,878.005 1454.693,899.685C1448.247,921.365 1427.837,950.564 1393.462,987.283C1355.181,1025.955 1306.255,1068.435 1246.685,1114.724C1187.114,1161.013 1131.353,1200.759 1079.4,1233.962C1030.571,1265.212 991.314,1285.134 961.626,1293.728C931.939,1302.322 909.087,1301.15 893.071,1290.212C860.259,1265.994 850.298,1210.525 863.189,1123.806C875.298,1055.056 896.196,974.392 925.884,881.814C932.915,857.986 940.142,833.962 947.564,809.744C953.814,788.259 960.064,766.775 966.314,745.291C985.845,674.197 1005.181,611.306 1024.321,556.619C1008.306,544.509 995.025,532.791 984.478,521.462Z" style="fill:rgb(0,255,255);fill-rule:nonzero;"/>
    </g>
    <g transform="matrix(1.5,0,0,1.5,0,-1650)">
        <rect x="0" y="2025" width="1275" height="1275" style="fill:white;"/>
    </g>
    <path d="M1275,2025L1275,2382L1632,2382L1632,2025L1275,2025ZM1683,2025L1683,2178L1734,2178L1734,2076L1836,2076L1836,2178L1887,2178L1887,2229L1683,2229L1683,2280L1836,2280L1836,2331L1887,2331L1887,2484L1938,2484L1938,2433L1989,2433L1989,2484L2040,2484L2040,2535L1938,2535L1938,2586L2091,2586L2091,2484L2040,2484L2040,2433L1989,2433L1989,2382L1938,2382L1938,2229L1989,2229L1989,2382L2040,2382L2040,2229L1989,2229L1989,2178L2040,2178L2040,2229L2142,2229L2142,2178L2040,2178L2040,2076L1989,2076L1989,2025L1683,2025ZM2193,2025L2193,2382L2550,2382L2550,2025L2193,2025ZM1581,2076L1581,2331L1326,2331L1326,2076L1581,2076ZM2499,2076L2499,2331L2244,2331L2244,2076L2499,2076ZM1377,2127L1377,2280L1530,2280L1530,2127L1377,2127ZM1938,2127L1938,2076L1989,2076L1989,2127L1938,2127ZM2295,2127L2295,2280L2448,2280L2448,2127L2295,2127ZM1683,2331L1683,2382L1734,2382L1734,2331L1683,2331ZM1785,2331L1785,2382L1836,2382L1836,2331L1785,2331ZM2091,2331L2091,2382L2142,2382L2142,2331L2091,2331ZM1275,2433L1275,2535L1326,2535L1326,2586L1275,2586L1275,2637L1326,2637L1326,2688L1377,2688L1377,2637L1428,2637L1428,2688L1479,2688L1479,2739L1326,2739L1326,2688L1275,2688L1275,2892L1326,2892L1326,2790L1428,2790L1428,2841L1377,2841L1377,2892L1632,2892L1632,2841L1581,2841L1581,2790L1530,2790L1530,2739L1581,2739L1581,2790L1632,2790L1632,2739L1581,2739L1581,2688L1632,2688L1632,2637L1581,2637L1581,2586L1632,2586L1632,2535L1581,2535L1581,2484L1632,2484L1632,2535L1683,2535L1683,2637L1734,2637L1734,2433L1428,2433L1428,2484L1479,2484L1479,2586L1530,2586L1530,2637L1428,2637L1428,2484L1377,2484L1377,2535L1326,2535L1326,2433L1275,2433ZM2142,2433L2142,2484L2193,2484L2193,2433L2142,2433ZM2295,2433L2295,2484L2244,2484L2244,2535L2193,2535L2193,2586L2346,2586L2346,2637L2499,2637L2499,2688L2550,2688L2550,2535L2499,2535L2499,2484L2550,2484L2550,2433L2397,2433L2397,2484L2346,2484L2346,2433L2295,2433ZM1785,2484L1785,2535L1836,2535L1836,2586L1887,2586L1887,2739L1938,2739L1938,2790L1989,2790L1989,2739L1938,2739L1938,2586L1887,2586L1887,2535L1836,2535L1836,2484L1785,2484ZM1785,2586L1785,2688L1836,2688L1836,2586L1785,2586ZM2142,2586L2142,2637L2193,2637L2193,2688L2295,2688L2295,2790L2346,2790L2346,2841L2397,2841L2397,2943L2499,2943L2499,2994L2550,2994L2550,2943L2499,2943L2499,2841L2448,2841L2448,2790L2499,2790L2499,2841L2550,2841L2550,2739L2499,2739L2499,2688L2448,2688L2448,2739L2346,2739L2346,2688L2295,2688L2295,2637L2193,2637L2193,2586L2142,2586ZM2397,2586L2397,2535L2499,2535L2499,2586L2397,2586ZM2040,2637L2040,2688L1989,2688L1989,2739L2040,2739L2040,2790L2091,2790L2091,2994L1938,2994L1938,3045L2040,3045L2040,3096L2142,3096L2142,3147L2091,3147L2091,3198L2142,3198L2142,3249L2193,3249L2193,3300L2244,3300L2244,3249L2193,3249L2193,3147L2244,3147L2244,3096L2346,3096L2346,2841L2295,2841L2295,2790L2244,2790L2244,2739L2142,2739L2142,2688L2091,2688L2091,2637L2040,2637ZM1683,2739L1683,3147L1734,3147L1734,3249L1683,3249L1683,3300L1785,3300L1785,3249L1836,3249L1836,3300L1938,3300L1938,3198L1887,3198L1887,3096L1938,3096L1938,3198L1989,3198L1989,3147L2040,3147L2040,3096L1938,3096L1938,3045L1887,3045L1887,2943L1836,2943L1836,3096L1785,3096L1785,3045L1734,3045L1734,2739L1683,2739ZM1785,2841L1785,2892L1836,2892L1836,2841L1785,2841ZM1887,2841L1887,2892L1989,2892L1989,2841L1887,2841ZM2142,2841L2142,2790L2091,2790L2091,2739L2142,2739L2142,2790L2244,2790L2244,2841L2142,2841ZM2295,2892L2295,3045L2142,3045L2142,2892L2295,2892ZM1275,2943L1275,3300L1632,3300L1632,2943L1275,2943ZM2193,2943L2193,2994L2244,2994L2244,2943L2193,2943ZM1581,2994L1581,3249L1326,3249L1326,2994L1581,2994ZM1377,3045L1377,3198L1530,3198L1530,3045L1377,3045ZM2448,3096L2448,3147L2295,3147L2295,3198L2244,3198L2244,3249L2346,3249L2346,3300L2397,3300L2397,3249L2346,3249L2346,3198L2397,3198L2397,3249L2499,3249L2499,3300L2550,3300L2550,3096L2448,3096ZM1785,3147L1734,3147L1734,3096L1785,3096L1785,3147ZM1887,3249L1836,3249L1836,3198L1887,3198L1887,3249ZM2091,3249L2091,3300L2142,3300L2142,3249L2091,3249Z" style="fill:white;"/>
    <g id="Layer1">
    </g>
</svg>
